<svg width="182" height="42" viewBox="0 0 182 42" fill="none" xmlns="http://www.w3.org/2000/svg">
<g clip-path="url(#clip0_1365_95)">
<path fill-rule="evenodd" clip-rule="evenodd" d="M52.7278 24.3842C52.7278 23.0395 51.638 21.9496 50.2932 21.9496H2.43458C1.09008 21.9496 0 23.0395 0 24.3842V33.4845C0 34.8292 1.09008 35.9193 2.43458 35.9193H50.2932C51.638 35.9193 52.7278 34.8292 52.7278 33.4845V24.3842ZM51.8029 24.3842V33.4845C51.8029 34.3184 51.1269 34.9942 50.2932 34.9942H2.4348C1.60093 34.9942 0.925124 34.3184 0.925124 33.4847V24.3842C0.925124 23.5506 1.60093 22.8748 2.43458 22.8745H50.2932C51.1269 22.8748 51.8029 23.5506 51.8029 24.3842Z" fill="#D6111E"/>
<path fill-rule="evenodd" clip-rule="evenodd" d="M48.6995 35.723C48.799 35.5818 48.8114 35.3969 48.7317 35.2437C48.6522 35.0903 48.4939 34.9942 48.3212 34.9942H4.40679C4.23428 34.9942 4.07577 35.0903 3.99629 35.2437C3.91681 35.3969 3.92924 35.5818 4.0287 35.723C4.0287 35.723 4.76711 36.7716 5.34767 37.5962C5.8643 38.3299 6.70572 38.7666 7.60309 38.7666H45.1251C46.0225 38.7666 46.8637 38.3299 47.3805 37.5962C47.9611 36.7716 48.6995 35.723 48.6995 35.723ZM47.4298 35.9193L46.6241 37.0635C46.2807 37.5513 45.7214 37.8415 45.1251 37.8415H7.60309C7.00655 37.8415 6.44752 37.5513 6.10407 37.0635L5.29817 35.9193H47.4298Z" fill="#D6111E"/>
<path fill-rule="evenodd" clip-rule="evenodd" d="M7.39257 26.2123C6.42992 26.2123 5.64844 26.9938 5.64844 27.9564V29.9123C5.64844 30.875 6.42992 31.6567 7.39257 31.6567C8.35521 31.6567 9.13669 30.875 9.13669 29.9123V27.9564C9.13669 26.9938 8.35521 26.2123 7.39257 26.2123ZM7.39257 27.1372C7.84458 27.1372 8.21179 27.5044 8.21179 27.9564V29.9123C8.21179 30.3646 7.84458 30.7316 7.39257 30.7316C6.94055 30.7316 6.57334 30.3646 6.57334 29.9123V27.9564C6.57334 27.5044 6.94055 27.1372 7.39257 27.1372Z" fill="#D6111E"/>
<path fill-rule="evenodd" clip-rule="evenodd" d="M12.8408 26.2123C11.8782 26.2123 11.0967 26.9938 11.0967 27.9564V29.9123C11.0967 30.875 11.8782 31.6567 12.8408 31.6567C13.8035 31.6567 14.5852 30.875 14.5852 29.9123V27.9564C14.5852 26.9938 13.8035 26.2123 12.8408 26.2123ZM12.8408 27.1372C13.2931 27.1372 13.6601 27.5044 13.6601 27.9564V29.9123C13.6601 30.3646 13.2931 30.7316 12.8408 30.7316C12.3888 30.7316 12.0218 30.3646 12.0218 29.9123V27.9564C12.0218 27.5044 12.3888 27.1372 12.8408 27.1372Z" fill="#D6111E"/>
<path fill-rule="evenodd" clip-rule="evenodd" d="M18.2893 26.2123C17.3266 26.2123 16.5449 26.9938 16.5449 27.9564V29.9123C16.5449 30.875 17.3266 31.6567 18.2893 31.6567C19.2519 31.6567 20.0334 30.875 20.0334 29.9123V27.9564C20.0334 26.9938 19.2519 26.2123 18.2893 26.2123ZM18.2893 27.1372C18.7413 27.1372 19.1083 27.5044 19.1083 27.9564V29.9123C19.1083 30.3646 18.7413 30.7316 18.2893 30.7316C17.837 30.7316 17.4701 30.3646 17.4701 29.9123V27.9564C17.4701 27.5044 17.837 27.1372 18.2893 27.1372Z" fill="#D6111E"/>
<path fill-rule="evenodd" clip-rule="evenodd" d="M44.358 26.2123C42.8554 26.2123 41.6357 27.432 41.6357 28.9344C41.6357 30.4367 42.8554 31.6567 44.358 31.6567C45.8603 31.6567 47.0801 30.4367 47.0801 28.9344C47.0801 27.432 45.8603 26.2123 44.358 26.2123ZM44.358 27.1372C45.3497 27.1372 46.1549 27.9426 46.1549 28.9344C46.1549 29.9263 45.3497 30.7316 44.358 30.7316C43.366 30.7316 42.5608 29.9263 42.5608 28.9344C42.5608 27.9426 43.366 27.1372 44.358 27.1372Z" fill="#D6111E"/>
<path fill-rule="evenodd" clip-rule="evenodd" d="M14.0855 38.3039C14.0855 38.0486 13.8784 37.8415 13.6228 37.8415H10.0953C9.83995 37.8415 9.63281 38.0486 9.63281 38.3039V40.5514C9.63281 40.9357 9.78556 41.304 10.0571 41.5757C10.3288 41.8473 10.6972 42 11.0815 42H12.6369C13.021 42 13.3895 41.8473 13.6612 41.5757C13.9328 41.304 14.0855 40.9357 14.0855 40.5514C14.0855 39.6003 14.0855 38.3039 14.0855 38.3039ZM13.1604 38.7666V40.5514C13.1604 40.6901 13.1051 40.8233 13.007 40.9215C12.9088 41.0198 12.7756 41.0749 12.6369 41.0749H11.0815C10.9425 41.0749 10.8095 41.0198 10.7111 40.9215C10.613 40.8233 10.558 40.6901 10.558 40.5514V38.7666H13.1604Z" fill="#D6111E"/>
<path fill-rule="evenodd" clip-rule="evenodd" d="M43.0952 38.3039C43.0952 38.0486 42.8881 37.8415 42.6326 37.8415H39.105C38.8497 37.8415 38.6426 38.0486 38.6426 38.3039V40.5514C38.6426 40.9357 38.7953 41.304 39.0668 41.5757C39.3386 41.8473 39.7069 42 40.0912 42H41.6466C42.0307 42 42.3992 41.8473 42.6708 41.5757C42.9425 41.304 43.0952 40.9357 43.0952 40.5514C43.0952 39.6003 43.0952 38.3039 43.0952 38.3039ZM42.1701 38.7666V40.5514C42.1701 40.6901 42.1148 40.8233 42.0167 40.9215C41.9186 41.0198 41.7854 41.0749 41.6466 41.0749H40.0912C39.9522 41.0749 39.8192 41.0198 39.7209 40.9215C39.6227 40.8233 39.5677 40.6901 39.5677 40.5514V38.7666H42.1701Z" fill="#D6111E"/>
<path fill-rule="evenodd" clip-rule="evenodd" d="M7.96243 22.5092C8.00794 22.7223 8.19643 22.8746 8.41467 22.8746H13.9395C14.0873 22.8746 14.2263 22.804 14.3133 22.6843C14.4004 22.5647 14.425 22.4108 14.3795 22.2701L8.34229 3.58464C8.02681 2.43506 6.83994 1.75348 5.68681 2.06252C4.53168 2.37201 3.84433 3.55911 4.1496 4.71423C4.14804 4.70846 7.96243 22.5092 7.96243 22.5092ZM8.78854 21.9497L5.05052 4.50488C5.04897 4.49733 5.04697 4.48956 5.04497 4.48201C4.86714 3.81775 5.26188 3.13395 5.92614 2.9559C6.5904 2.77807 7.27419 3.1728 7.45225 3.83706C7.45425 3.84461 7.45647 3.85216 7.45891 3.85949L13.3039 21.9497H8.78854Z" fill="#D6111E"/>
<path fill-rule="evenodd" clip-rule="evenodd" d="M38.3485 22.27C38.3032 22.4108 38.3277 22.5646 38.4147 22.6843C38.5017 22.804 38.6409 22.8746 38.7888 22.8746H44.3135C44.5316 22.8746 44.72 22.7223 44.7658 22.5091L48.5799 4.70844C48.8817 3.55509 48.1945 2.37132 47.0414 2.0625C45.8865 1.75302 44.6974 2.43726 44.3844 3.59039C44.3859 3.58462 38.3485 22.27 38.3485 22.27ZM39.4242 21.9497L45.2693 3.85947C45.2715 3.85214 45.2737 3.84459 45.276 3.83704C45.4538 3.17278 46.1376 2.77805 46.8021 2.95588C47.4663 3.13393 47.8611 3.81773 47.683 4.48199C47.681 4.48954 47.6792 4.49731 47.6777 4.50486L43.9397 21.9497H39.4242Z" fill="#D6111E"/>
<path fill-rule="evenodd" clip-rule="evenodd" d="M26.3642 11.6747C24.5903 11.6747 23.1504 13.1149 23.1504 14.8888C23.1504 16.6627 24.5903 18.1028 26.3642 18.1028C28.1381 18.1028 29.5783 16.6627 29.5783 14.8888C29.5783 13.1149 28.1381 11.6747 26.3642 11.6747ZM26.3642 12.5998C27.6277 12.5998 28.6532 13.6255 28.6532 14.8888C28.6532 16.152 27.6277 17.1777 26.3642 17.1777C25.101 17.1777 24.0753 16.152 24.0753 14.8888C24.0753 13.6255 25.101 12.5998 26.3642 12.5998Z" fill="#D6111E"/>
<path fill-rule="evenodd" clip-rule="evenodd" d="M34.0094 10.5979C32.6205 7.77839 29.7171 5.83734 26.364 5.83734C23.0112 5.83734 20.1075 7.77839 18.7188 10.5979C18.2497 11.5502 18.6413 12.7022 19.5935 13.1713C20.5457 13.6402 21.6978 13.2485 22.1669 12.2963C22.9295 10.7482 24.5229 9.68103 26.364 9.68103C28.2052 9.68103 29.7988 10.7482 30.5614 12.2963C31.0303 13.2485 32.1825 13.6402 33.1347 13.1713C34.0867 12.7022 34.4786 11.5502 34.0094 10.5979ZM33.1796 11.0067C33.4229 11.5006 33.2197 12.0981 32.7258 12.3414C32.232 12.5847 31.6344 12.3814 31.3913 11.8876C30.4779 10.0336 28.569 8.75613 26.364 8.75613C24.1592 8.75613 22.2504 10.0336 21.337 11.8876C21.0937 12.3814 20.4962 12.5847 20.0023 12.3414C19.5085 12.0981 19.3054 11.5004 19.5485 11.0067C20.7866 8.49305 23.3748 6.76246 26.364 6.76246C29.3532 6.76246 31.9414 8.49305 33.1796 11.0067Z" fill="#D6111E"/>
<path fill-rule="evenodd" clip-rule="evenodd" d="M37.2905 6.04649C35.0086 2.41482 30.9658 0 26.3639 0C21.7621 0 17.7194 2.41482 15.4374 6.04649C14.8728 6.9452 15.1434 8.13163 16.0424 8.69643C16.9411 9.26101 18.1273 8.99037 18.6921 8.09167C20.2946 5.54142 23.1323 3.84369 26.3639 3.84369C29.5955 3.84369 32.4335 5.54142 34.036 8.09167C34.6006 8.99037 35.787 9.26101 36.6857 8.69643C37.5844 8.13163 37.8553 6.9452 37.2905 6.04649ZM36.5072 6.5387C36.8003 7.00492 36.6597 7.62012 36.1935 7.91317C35.7275 8.20601 35.1121 8.06547 34.8192 7.59947C33.0531 4.78902 29.9254 2.91857 26.3639 2.91857C22.8026 2.91857 19.6747 4.78902 17.9088 7.59947C17.616 8.06547 17.0006 8.20601 16.5343 7.91317C16.0683 7.62012 15.9278 7.00492 16.2206 6.5387C18.3391 3.16722 22.092 0.925124 26.3639 0.925124C30.6361 0.925124 34.3888 3.16722 36.5072 6.5387Z" fill="#D6111E"/>
<path d="M80.2648 11.9697V35H76.0591L66.0395 20.5049H65.8709V35H61.0017V11.9697H65.2749L75.2157 26.4536H75.4181V11.9697H80.2648ZM92.0695 35.3374C90.2928 35.3374 88.7634 34.9775 87.4814 34.2578C86.207 33.5306 85.2249 32.5036 84.5352 31.1766C83.8455 29.8422 83.5006 28.2641 83.5006 26.4424C83.5006 24.6656 83.8455 23.1063 84.5352 21.7643C85.2249 20.4224 86.1957 19.3766 87.4477 18.6269C88.7072 17.8772 90.1841 17.5024 91.8783 17.5024C93.0179 17.5024 94.0787 17.686 95.0608 18.0534C96.0503 18.4132 96.9125 18.9568 97.6472 19.6839C98.3894 20.4111 98.9666 21.3258 99.3789 22.4278C99.7913 23.5223 99.9974 24.8043 99.9974 26.2737V27.5894H85.4123V24.6206H95.4881C95.4881 23.9309 95.3381 23.3199 95.0383 22.7876C94.7384 22.2554 94.3223 21.8393 93.79 21.5394C93.2653 21.232 92.6543 21.0784 91.9571 21.0784C91.2299 21.0784 90.5851 21.247 90.0229 21.5844C89.4681 21.9143 89.0333 22.3603 88.7184 22.9226C88.4036 23.4774 88.2424 24.0958 88.2349 24.7781V27.6006C88.2349 28.4553 88.3923 29.1937 88.7072 29.8159C89.0295 30.4382 89.4831 30.918 90.0679 31.2553C90.6526 31.5927 91.3461 31.7614 92.1482 31.7614C92.6805 31.7614 93.1678 31.6864 93.6101 31.5365C94.0524 31.3865 94.431 31.1616 94.7459 30.8617C95.0608 30.5619 95.3007 30.1945 95.4656 29.7597L99.8962 30.0521C99.6713 31.1166 99.2103 32.0462 98.5131 32.8409C97.8233 33.6281 96.9312 34.2428 95.8367 34.6851C94.7496 35.1199 93.4939 35.3374 92.0695 35.3374ZM112.311 17.7273V21.3258H101.909V17.7273H112.311ZM104.271 13.589H109.061V29.6922C109.061 30.1345 109.129 30.4794 109.264 30.7268C109.398 30.9667 109.586 31.1354 109.826 31.2328C110.073 31.3303 110.358 31.379 110.68 31.379C110.905 31.379 111.13 31.3603 111.355 31.3228C111.58 31.2778 111.752 31.2441 111.872 31.2216L112.626 34.7863C112.386 34.8613 112.049 34.9475 111.614 35.045C111.179 35.1499 110.65 35.2137 110.028 35.2362C108.874 35.2811 107.862 35.1274 106.992 34.7751C106.13 34.4227 105.459 33.8755 104.979 33.1333C104.499 32.3911 104.263 31.454 104.271 30.322V13.589ZM115.893 35V11.9697H131.141V15.9843H120.762V21.4719H130.129V25.4865H120.762V35H115.893ZM134.416 11.9697H140.421L146.764 27.4432H147.034L153.376 11.9697H159.381V35H154.658V20.0101H154.467L148.507 34.8875H145.291L139.331 19.9538H139.139V35H134.416V11.9697ZM163.393 35V11.9697H172.614C174.308 11.9697 175.721 12.2208 176.853 12.7231C177.985 13.2254 178.836 13.9226 179.406 14.8147C179.976 15.6994 180.261 16.7189 180.261 17.8735C180.261 18.7731 180.081 19.564 179.721 20.2462C179.361 20.9209 178.866 21.4757 178.236 21.9105C177.614 22.3378 176.902 22.6415 176.1 22.8214V23.0463C176.977 23.0838 177.798 23.3312 178.562 23.7885C179.335 24.2458 179.961 24.8868 180.44 25.7114C180.92 26.5286 181.16 27.5032 181.16 28.6352C181.16 29.8572 180.856 30.948 180.249 31.9076C179.65 32.8597 178.761 33.6131 177.584 34.1679C176.407 34.7226 174.956 35 173.232 35H163.393ZM168.262 31.0192H172.231C173.588 31.0192 174.578 30.7605 175.2 30.2433C175.822 29.7185 176.133 29.0213 176.133 28.1516C176.133 27.5144 175.98 26.9521 175.672 26.4648C175.365 25.9775 174.926 25.5952 174.357 25.3178C173.794 25.0404 173.124 24.9018 172.344 24.9018H168.262V31.0192ZM168.262 21.6069H171.872C172.539 21.6069 173.131 21.4907 173.648 21.2583C174.173 21.0184 174.585 20.681 174.885 20.2462C175.193 19.8114 175.346 19.2904 175.346 18.6831C175.346 17.851 175.05 17.18 174.458 16.6702C173.873 16.1604 173.041 15.9055 171.961 15.9055H168.262V21.6069Z" fill="#D6111E"/>
</g>
<defs>
<clipPath id="clip0_1365_95">
<rect width="182" height="42" fill="white"/>
</clipPath>
</defs>
</svg>
